<?xml version="1.0" encoding="UTF-8"?>
<svg id="Layer_1" data-name="Layer 1" xmlns="http://www.w3.org/2000/svg" viewBox="0 0 1000 1000">
  <defs>
    <style>
      .cls-1 {
        fill: #231f20;
      }
    </style>
  </defs>
  <path class="cls-1" d="M1264.58,295.13l-764.57,204.87L1185.5,104.22l.24-.14c34.24,59.22,61.03,123.31,79.08,190.98l-.24.06Z"/>
  <path class="cls-1" d="M295.14,1264.58l204.87-764.59v791.55c-70.89,0-139.58-9.29-204.93-26.74l.06-.22Z"/>
  <path class="cls-1" d="M500.01,499.99H-291.54c0-70.89,9.29-139.58,26.74-204.93l.22.06,764.59,204.87Z"/>
  <path class="cls-1" d="M-264.58,704.86l764.59-204.87L-185.51,895.77l-.24.14c-34.23-59.22-61.01-123.31-79.06-190.98l.22-.06Z"/>
  <path class="cls-1" d="M704.86,1264.58l-204.85-764.59,395.77,685.51.14.24c-59.22,34.23-123.32,61.01-191,79.08l-.06-.24Z"/>
  <path class="cls-1" d="M1059.71-59.71L500.01,499.99,895.78-185.5l.14-.24c60.09,34.73,115.19,77.14,163.93,125.89l-.14.14Z"/>
  <path class="cls-1" d="M-59.71,1059.71L500.01,499.99,104.23,1185.51l-.14.24c-60.09-34.75-115.17-77.14-163.93-125.9l.13-.13Z"/>
  <path class="cls-1" d="M1059.71,1059.71L500.01,499.99l685.5,395.77.24.14c-34.73,60.09-77.13,115.17-125.89,163.93l-.14-.13Z"/>
  <path class="cls-1" d="M500.01,499.99L-185.51,104.22l-.24-.14C-150.99,43.98-108.6-11.09-59.86-59.84l.14.13L500.01,499.99Z"/>
  <path class="cls-1" d="M1264.58,704.86l-764.57-204.87h791.55c0,70.89-9.29,139.58-26.74,204.93l-.24-.06Z"/>
  <path class="cls-1" d="M500.01,499.99L104.23-185.5l-.14-.24c59.22-34.24,123.31-61.03,190.98-79.08l.06.24,204.87,764.57Z"/>
  <path class="cls-1" d="M500.01-291.55c70.88,0,139.57,9.29,204.92,26.72l-.06.25-204.85,764.57V-291.55Z"/>
</svg>